<?xml version="1.0" encoding="utf-8" standalone="no"?>
<!DOCTYPE svg PUBLIC "-//W3C//DTD SVG 1.1//EN"
  "http://www.w3.org/Graphics/SVG/1.1/DTD/svg11.dtd">
<svg height="576pt" version="1.1" viewBox="0 0 864 576" width="864pt" xmlns="http://www.w3.org/2000/svg" xmlns:xlink="http://www.w3.org/1999/xlink">
 <metadata>
  <rdf:RDF xmlns:cc="http://creativecommons.org/ns#" xmlns:dc="http://purl.org/dc/elements/1.1/" xmlns:rdf="http://www.w3.org/1999/02/22-rdf-syntax-ns#">
   <cc:Work>
    <dc:type rdf:resource="http://purl.org/dc/dcmitype/StillImage"/>
    <dc:date>2023-07-09T20:16:24.958859</dc:date>
    <dc:format>image/svg+xml</dc:format>
    <dc:creator>
     <cc:Agent>
      <dc:title>Matplotlib v3.4.3, https://matplotlib.org/</dc:title>
     </cc:Agent>
    </dc:creator>
   </cc:Work>
  </rdf:RDF>
 </metadata>
 <defs>
  <style type="text/css">*{stroke-linecap:butt;stroke-linejoin:round;}</style>
 </defs>
 <g id="figure_1">
  <g id="patch_1">
   <path d="M 0 576 
L 864 576 
L 864 0 
L 0 0 
z
" style="fill:#ffffff;"/>
  </g>
  <g id="axes_1">
   <g id="line2d_1">
    <path clip-path="url(#p2af901c8bd)" d="M 138.436364 89.28 
L 138.436364 210.24 
" style="fill:none;stroke:#d3d3d3;stroke-linecap:square;stroke-width:1.5;"/>
   </g>
   <g id="line2d_2">
    <path clip-path="url(#p2af901c8bd)" d="M 138.436364 89.28 
L 199.309091 210.24 
" style="fill:none;stroke:#d3d3d3;stroke-linecap:square;stroke-width:1.5;"/>
   </g>
   <g id="line2d_3">
    <path clip-path="url(#p2af901c8bd)" d="M 138.436364 89.28 
L 260.181818 210.24 
" style="fill:none;stroke:#d3d3d3;stroke-linecap:square;stroke-width:1.5;"/>
   </g>
   <g id="line2d_4">
    <path clip-path="url(#p2af901c8bd)" d="M 138.436364 89.28 
L 321.054545 210.24 
" style="fill:none;stroke:#d3d3d3;stroke-linecap:square;stroke-width:1.5;"/>
   </g>
   <g id="line2d_5">
    <path clip-path="url(#p2af901c8bd)" d="M 138.436364 89.28 
L 381.927273 210.24 
" style="fill:none;stroke:#d3d3d3;stroke-linecap:square;stroke-width:1.5;"/>
   </g>
   <g id="line2d_6">
    <path clip-path="url(#p2af901c8bd)" d="M 138.436364 89.28 
L 442.8 210.24 
" style="fill:none;stroke:#d3d3d3;stroke-linecap:square;stroke-width:1.5;"/>
   </g>
   <g id="line2d_7">
    <path clip-path="url(#p2af901c8bd)" d="M 442.8 89.28 
L 138.436364 210.24 
" style="fill:none;stroke:#d3d3d3;stroke-linecap:square;stroke-width:1.5;"/>
   </g>
   <g id="line2d_8">
    <path clip-path="url(#p2af901c8bd)" d="M 442.8 89.28 
L 199.309091 210.24 
" style="fill:none;stroke:#d3d3d3;stroke-linecap:square;stroke-width:1.5;"/>
   </g>
   <g id="line2d_9">
    <path clip-path="url(#p2af901c8bd)" d="M 442.8 89.28 
L 260.181818 210.24 
" style="fill:none;stroke:#d3d3d3;stroke-linecap:square;stroke-width:1.5;"/>
   </g>
   <g id="line2d_10">
    <path clip-path="url(#p2af901c8bd)" d="M 442.8 89.28 
L 321.054545 210.24 
" style="fill:none;stroke:#d3d3d3;stroke-linecap:square;stroke-width:1.5;"/>
   </g>
   <g id="line2d_11">
    <path clip-path="url(#p2af901c8bd)" d="M 442.8 89.28 
L 381.927273 210.24 
" style="fill:none;stroke:#d3d3d3;stroke-linecap:square;stroke-width:1.5;"/>
   </g>
   <g id="line2d_12">
    <path clip-path="url(#p2af901c8bd)" d="M 442.8 89.28 
L 442.8 210.24 
" style="fill:none;stroke:#d3d3d3;stroke-linecap:square;stroke-width:1.5;"/>
   </g>
   <g id="line2d_13">
    <path clip-path="url(#p2af901c8bd)" d="M 138.436364 210.24 
L 138.436364 331.2 
" style="fill:none;stroke:#d3d3d3;stroke-linecap:square;stroke-width:1.5;"/>
   </g>
   <g id="line2d_14">
    <path clip-path="url(#p2af901c8bd)" d="M 138.436364 210.24 
L 181.916883 331.2 
" style="fill:none;stroke:#d3d3d3;stroke-linecap:square;stroke-width:1.5;"/>
   </g>
   <g id="line2d_15">
    <path clip-path="url(#p2af901c8bd)" d="M 138.436364 210.24 
L 225.397403 331.2 
" style="fill:none;stroke:#d3d3d3;stroke-linecap:square;stroke-width:1.5;"/>
   </g>
   <g id="line2d_16">
    <path clip-path="url(#p2af901c8bd)" d="M 138.436364 210.24 
L 268.877922 331.2 
" style="fill:none;stroke:#d3d3d3;stroke-linecap:square;stroke-width:1.5;"/>
   </g>
   <g id="line2d_17">
    <path clip-path="url(#p2af901c8bd)" d="M 138.436364 210.24 
L 312.358442 331.2 
" style="fill:none;stroke:#d3d3d3;stroke-linecap:square;stroke-width:1.5;"/>
   </g>
   <g id="line2d_18">
    <path clip-path="url(#p2af901c8bd)" d="M 138.436364 210.24 
L 355.838961 331.2 
" style="fill:none;stroke:#d3d3d3;stroke-linecap:square;stroke-width:1.5;"/>
   </g>
   <g id="line2d_19">
    <path clip-path="url(#p2af901c8bd)" d="M 138.436364 210.24 
L 399.319481 331.2 
" style="fill:none;stroke:#d3d3d3;stroke-linecap:square;stroke-width:1.5;"/>
   </g>
   <g id="line2d_20">
    <path clip-path="url(#p2af901c8bd)" d="M 138.436364 210.24 
L 442.8 331.2 
" style="fill:none;stroke:#d3d3d3;stroke-linecap:square;stroke-width:1.5;"/>
   </g>
   <g id="line2d_21">
    <path clip-path="url(#p2af901c8bd)" d="M 199.309091 210.24 
L 138.436364 331.2 
" style="fill:none;stroke:#d3d3d3;stroke-linecap:square;stroke-width:1.5;"/>
   </g>
   <g id="line2d_22">
    <path clip-path="url(#p2af901c8bd)" d="M 199.309091 210.24 
L 181.916883 331.2 
" style="fill:none;stroke:#d3d3d3;stroke-linecap:square;stroke-width:1.5;"/>
   </g>
   <g id="line2d_23">
    <path clip-path="url(#p2af901c8bd)" d="M 199.309091 210.24 
L 225.397403 331.2 
" style="fill:none;stroke:#d3d3d3;stroke-linecap:square;stroke-width:1.5;"/>
   </g>
   <g id="line2d_24">
    <path clip-path="url(#p2af901c8bd)" d="M 199.309091 210.24 
L 268.877922 331.2 
" style="fill:none;stroke:#d3d3d3;stroke-linecap:square;stroke-width:1.5;"/>
   </g>
   <g id="line2d_25">
    <path clip-path="url(#p2af901c8bd)" d="M 199.309091 210.24 
L 312.358442 331.2 
" style="fill:none;stroke:#d3d3d3;stroke-linecap:square;stroke-width:1.5;"/>
   </g>
   <g id="line2d_26">
    <path clip-path="url(#p2af901c8bd)" d="M 199.309091 210.24 
L 355.838961 331.2 
" style="fill:none;stroke:#d3d3d3;stroke-linecap:square;stroke-width:1.5;"/>
   </g>
   <g id="line2d_27">
    <path clip-path="url(#p2af901c8bd)" d="M 199.309091 210.24 
L 399.319481 331.2 
" style="fill:none;stroke:#d3d3d3;stroke-linecap:square;stroke-width:1.5;"/>
   </g>
   <g id="line2d_28">
    <path clip-path="url(#p2af901c8bd)" d="M 199.309091 210.24 
L 442.8 331.2 
" style="fill:none;stroke:#d3d3d3;stroke-linecap:square;stroke-width:1.5;"/>
   </g>
   <g id="line2d_29">
    <path clip-path="url(#p2af901c8bd)" d="M 260.181818 210.24 
L 138.436364 331.2 
" style="fill:none;stroke:#d3d3d3;stroke-linecap:square;stroke-width:1.5;"/>
   </g>
   <g id="line2d_30">
    <path clip-path="url(#p2af901c8bd)" d="M 260.181818 210.24 
L 181.916883 331.2 
" style="fill:none;stroke:#d3d3d3;stroke-linecap:square;stroke-width:1.5;"/>
   </g>
   <g id="line2d_31">
    <path clip-path="url(#p2af901c8bd)" d="M 260.181818 210.24 
L 225.397403 331.2 
" style="fill:none;stroke:#d3d3d3;stroke-linecap:square;stroke-width:1.5;"/>
   </g>
   <g id="line2d_32">
    <path clip-path="url(#p2af901c8bd)" d="M 260.181818 210.24 
L 268.877922 331.2 
" style="fill:none;stroke:#d3d3d3;stroke-linecap:square;stroke-width:1.5;"/>
   </g>
   <g id="line2d_33">
    <path clip-path="url(#p2af901c8bd)" d="M 260.181818 210.24 
L 312.358442 331.2 
" style="fill:none;stroke:#d3d3d3;stroke-linecap:square;stroke-width:1.5;"/>
   </g>
   <g id="line2d_34">
    <path clip-path="url(#p2af901c8bd)" d="M 260.181818 210.24 
L 355.838961 331.2 
" style="fill:none;stroke:#d3d3d3;stroke-linecap:square;stroke-width:1.5;"/>
   </g>
   <g id="line2d_35">
    <path clip-path="url(#p2af901c8bd)" d="M 260.181818 210.24 
L 399.319481 331.2 
" style="fill:none;stroke:#d3d3d3;stroke-linecap:square;stroke-width:1.5;"/>
   </g>
   <g id="line2d_36">
    <path clip-path="url(#p2af901c8bd)" d="M 260.181818 210.24 
L 442.8 331.2 
" style="fill:none;stroke:#d3d3d3;stroke-linecap:square;stroke-width:1.5;"/>
   </g>
   <g id="line2d_37">
    <path clip-path="url(#p2af901c8bd)" d="M 321.054545 210.24 
L 138.436364 331.2 
" style="fill:none;stroke:#d3d3d3;stroke-linecap:square;stroke-width:1.5;"/>
   </g>
   <g id="line2d_38">
    <path clip-path="url(#p2af901c8bd)" d="M 321.054545 210.24 
L 181.916883 331.2 
" style="fill:none;stroke:#d3d3d3;stroke-linecap:square;stroke-width:1.5;"/>
   </g>
   <g id="line2d_39">
    <path clip-path="url(#p2af901c8bd)" d="M 321.054545 210.24 
L 225.397403 331.2 
" style="fill:none;stroke:#d3d3d3;stroke-linecap:square;stroke-width:1.5;"/>
   </g>
   <g id="line2d_40">
    <path clip-path="url(#p2af901c8bd)" d="M 321.054545 210.24 
L 268.877922 331.2 
" style="fill:none;stroke:#d3d3d3;stroke-linecap:square;stroke-width:1.5;"/>
   </g>
   <g id="line2d_41">
    <path clip-path="url(#p2af901c8bd)" d="M 321.054545 210.24 
L 312.358442 331.2 
" style="fill:none;stroke:#d3d3d3;stroke-linecap:square;stroke-width:1.5;"/>
   </g>
   <g id="line2d_42">
    <path clip-path="url(#p2af901c8bd)" d="M 321.054545 210.24 
L 355.838961 331.2 
" style="fill:none;stroke:#d3d3d3;stroke-linecap:square;stroke-width:1.5;"/>
   </g>
   <g id="line2d_43">
    <path clip-path="url(#p2af901c8bd)" d="M 321.054545 210.24 
L 399.319481 331.2 
" style="fill:none;stroke:#d3d3d3;stroke-linecap:square;stroke-width:1.5;"/>
   </g>
   <g id="line2d_44">
    <path clip-path="url(#p2af901c8bd)" d="M 321.054545 210.24 
L 442.8 331.2 
" style="fill:none;stroke:#d3d3d3;stroke-linecap:square;stroke-width:1.5;"/>
   </g>
   <g id="line2d_45">
    <path clip-path="url(#p2af901c8bd)" d="M 381.927273 210.24 
L 138.436364 331.2 
" style="fill:none;stroke:#d3d3d3;stroke-linecap:square;stroke-width:1.5;"/>
   </g>
   <g id="line2d_46">
    <path clip-path="url(#p2af901c8bd)" d="M 381.927273 210.24 
L 181.916883 331.2 
" style="fill:none;stroke:#d3d3d3;stroke-linecap:square;stroke-width:1.5;"/>
   </g>
   <g id="line2d_47">
    <path clip-path="url(#p2af901c8bd)" d="M 381.927273 210.24 
L 225.397403 331.2 
" style="fill:none;stroke:#d3d3d3;stroke-linecap:square;stroke-width:1.5;"/>
   </g>
   <g id="line2d_48">
    <path clip-path="url(#p2af901c8bd)" d="M 381.927273 210.24 
L 268.877922 331.2 
" style="fill:none;stroke:#d3d3d3;stroke-linecap:square;stroke-width:1.5;"/>
   </g>
   <g id="line2d_49">
    <path clip-path="url(#p2af901c8bd)" d="M 381.927273 210.24 
L 312.358442 331.2 
" style="fill:none;stroke:#d3d3d3;stroke-linecap:square;stroke-width:1.5;"/>
   </g>
   <g id="line2d_50">
    <path clip-path="url(#p2af901c8bd)" d="M 381.927273 210.24 
L 355.838961 331.2 
" style="fill:none;stroke:#d3d3d3;stroke-linecap:square;stroke-width:1.5;"/>
   </g>
   <g id="line2d_51">
    <path clip-path="url(#p2af901c8bd)" d="M 381.927273 210.24 
L 399.319481 331.2 
" style="fill:none;stroke:#d3d3d3;stroke-linecap:square;stroke-width:1.5;"/>
   </g>
   <g id="line2d_52">
    <path clip-path="url(#p2af901c8bd)" d="M 381.927273 210.24 
L 442.8 331.2 
" style="fill:none;stroke:#d3d3d3;stroke-linecap:square;stroke-width:1.5;"/>
   </g>
   <g id="line2d_53">
    <path clip-path="url(#p2af901c8bd)" d="M 442.8 210.24 
L 138.436364 331.2 
" style="fill:none;stroke:#d3d3d3;stroke-linecap:square;stroke-width:1.5;"/>
   </g>
   <g id="line2d_54">
    <path clip-path="url(#p2af901c8bd)" d="M 442.8 210.24 
L 181.916883 331.2 
" style="fill:none;stroke:#d3d3d3;stroke-linecap:square;stroke-width:1.5;"/>
   </g>
   <g id="line2d_55">
    <path clip-path="url(#p2af901c8bd)" d="M 442.8 210.24 
L 225.397403 331.2 
" style="fill:none;stroke:#d3d3d3;stroke-linecap:square;stroke-width:1.5;"/>
   </g>
   <g id="line2d_56">
    <path clip-path="url(#p2af901c8bd)" d="M 442.8 210.24 
L 268.877922 331.2 
" style="fill:none;stroke:#d3d3d3;stroke-linecap:square;stroke-width:1.5;"/>
   </g>
   <g id="line2d_57">
    <path clip-path="url(#p2af901c8bd)" d="M 442.8 210.24 
L 312.358442 331.2 
" style="fill:none;stroke:#d3d3d3;stroke-linecap:square;stroke-width:1.5;"/>
   </g>
   <g id="line2d_58">
    <path clip-path="url(#p2af901c8bd)" d="M 442.8 210.24 
L 355.838961 331.2 
" style="fill:none;stroke:#d3d3d3;stroke-linecap:square;stroke-width:1.5;"/>
   </g>
   <g id="line2d_59">
    <path clip-path="url(#p2af901c8bd)" d="M 442.8 210.24 
L 399.319481 331.2 
" style="fill:none;stroke:#d3d3d3;stroke-linecap:square;stroke-width:1.5;"/>
   </g>
   <g id="line2d_60">
    <path clip-path="url(#p2af901c8bd)" d="M 442.8 210.24 
L 442.8 331.2 
" style="fill:none;stroke:#d3d3d3;stroke-linecap:square;stroke-width:1.5;"/>
   </g>
   <g id="line2d_61">
    <path clip-path="url(#p2af901c8bd)" d="M 138.436364 331.2 
L 138.436364 492.48 
" style="fill:none;stroke:#d3d3d3;stroke-linecap:square;stroke-width:1.5;"/>
   </g>
   <g id="line2d_62">
    <path clip-path="url(#p2af901c8bd)" d="M 138.436364 331.2 
L 172.254545 492.48 
" style="fill:none;stroke:#d3d3d3;stroke-linecap:square;stroke-width:1.5;"/>
   </g>
   <g id="line2d_63">
    <path clip-path="url(#p2af901c8bd)" d="M 138.436364 331.2 
L 206.072727 492.48 
" style="fill:none;stroke:#d3d3d3;stroke-linecap:square;stroke-width:1.5;"/>
   </g>
   <g id="line2d_64">
    <path clip-path="url(#p2af901c8bd)" d="M 138.436364 331.2 
L 239.890909 492.48 
" style="fill:none;stroke:#d3d3d3;stroke-linecap:square;stroke-width:1.5;"/>
   </g>
   <g id="line2d_65">
    <path clip-path="url(#p2af901c8bd)" d="M 138.436364 331.2 
L 273.709091 492.48 
" style="fill:none;stroke:#d3d3d3;stroke-linecap:square;stroke-width:1.5;"/>
   </g>
   <g id="line2d_66">
    <path clip-path="url(#p2af901c8bd)" d="M 138.436364 331.2 
L 307.527273 492.48 
" style="fill:none;stroke:#d3d3d3;stroke-linecap:square;stroke-width:1.5;"/>
   </g>
   <g id="line2d_67">
    <path clip-path="url(#p2af901c8bd)" d="M 138.436364 331.2 
L 341.345455 492.48 
" style="fill:none;stroke:#d3d3d3;stroke-linecap:square;stroke-width:1.5;"/>
   </g>
   <g id="line2d_68">
    <path clip-path="url(#p2af901c8bd)" d="M 138.436364 331.2 
L 375.163636 492.48 
" style="fill:none;stroke:#d3d3d3;stroke-linecap:square;stroke-width:1.5;"/>
   </g>
   <g id="line2d_69">
    <path clip-path="url(#p2af901c8bd)" d="M 138.436364 331.2 
L 408.981818 492.48 
" style="fill:none;stroke:#d3d3d3;stroke-linecap:square;stroke-width:1.5;"/>
   </g>
   <g id="line2d_70">
    <path clip-path="url(#p2af901c8bd)" d="M 138.436364 331.2 
L 442.8 492.48 
" style="fill:none;stroke:#d3d3d3;stroke-linecap:square;stroke-width:1.5;"/>
   </g>
   <g id="line2d_71">
    <path clip-path="url(#p2af901c8bd)" d="M 181.916883 331.2 
L 138.436364 492.48 
" style="fill:none;stroke:#d3d3d3;stroke-linecap:square;stroke-width:1.5;"/>
   </g>
   <g id="line2d_72">
    <path clip-path="url(#p2af901c8bd)" d="M 181.916883 331.2 
L 172.254545 492.48 
" style="fill:none;stroke:#d3d3d3;stroke-linecap:square;stroke-width:1.5;"/>
   </g>
   <g id="line2d_73">
    <path clip-path="url(#p2af901c8bd)" d="M 181.916883 331.2 
L 206.072727 492.48 
" style="fill:none;stroke:#d3d3d3;stroke-linecap:square;stroke-width:1.5;"/>
   </g>
   <g id="line2d_74">
    <path clip-path="url(#p2af901c8bd)" d="M 181.916883 331.2 
L 239.890909 492.48 
" style="fill:none;stroke:#d3d3d3;stroke-linecap:square;stroke-width:1.5;"/>
   </g>
   <g id="line2d_75">
    <path clip-path="url(#p2af901c8bd)" d="M 181.916883 331.2 
L 273.709091 492.48 
" style="fill:none;stroke:#d3d3d3;stroke-linecap:square;stroke-width:1.5;"/>
   </g>
   <g id="line2d_76">
    <path clip-path="url(#p2af901c8bd)" d="M 181.916883 331.2 
L 307.527273 492.48 
" style="fill:none;stroke:#d3d3d3;stroke-linecap:square;stroke-width:1.5;"/>
   </g>
   <g id="line2d_77">
    <path clip-path="url(#p2af901c8bd)" d="M 181.916883 331.2 
L 341.345455 492.48 
" style="fill:none;stroke:#d3d3d3;stroke-linecap:square;stroke-width:1.5;"/>
   </g>
   <g id="line2d_78">
    <path clip-path="url(#p2af901c8bd)" d="M 181.916883 331.2 
L 375.163636 492.48 
" style="fill:none;stroke:#d3d3d3;stroke-linecap:square;stroke-width:1.5;"/>
   </g>
   <g id="line2d_79">
    <path clip-path="url(#p2af901c8bd)" d="M 181.916883 331.2 
L 408.981818 492.48 
" style="fill:none;stroke:#d3d3d3;stroke-linecap:square;stroke-width:1.5;"/>
   </g>
   <g id="line2d_80">
    <path clip-path="url(#p2af901c8bd)" d="M 181.916883 331.2 
L 442.8 492.48 
" style="fill:none;stroke:#d3d3d3;stroke-linecap:square;stroke-width:1.5;"/>
   </g>
   <g id="line2d_81">
    <path clip-path="url(#p2af901c8bd)" d="M 225.397403 331.2 
L 138.436364 492.48 
" style="fill:none;stroke:#d3d3d3;stroke-linecap:square;stroke-width:1.5;"/>
   </g>
   <g id="line2d_82">
    <path clip-path="url(#p2af901c8bd)" d="M 225.397403 331.2 
L 172.254545 492.48 
" style="fill:none;stroke:#d3d3d3;stroke-linecap:square;stroke-width:1.5;"/>
   </g>
   <g id="line2d_83">
    <path clip-path="url(#p2af901c8bd)" d="M 225.397403 331.2 
L 206.072727 492.48 
" style="fill:none;stroke:#d3d3d3;stroke-linecap:square;stroke-width:1.5;"/>
   </g>
   <g id="line2d_84">
    <path clip-path="url(#p2af901c8bd)" d="M 225.397403 331.2 
L 239.890909 492.48 
" style="fill:none;stroke:#d3d3d3;stroke-linecap:square;stroke-width:1.5;"/>
   </g>
   <g id="line2d_85">
    <path clip-path="url(#p2af901c8bd)" d="M 225.397403 331.2 
L 273.709091 492.48 
" style="fill:none;stroke:#d3d3d3;stroke-linecap:square;stroke-width:1.5;"/>
   </g>
   <g id="line2d_86">
    <path clip-path="url(#p2af901c8bd)" d="M 225.397403 331.2 
L 307.527273 492.48 
" style="fill:none;stroke:#d3d3d3;stroke-linecap:square;stroke-width:1.5;"/>
   </g>
   <g id="line2d_87">
    <path clip-path="url(#p2af901c8bd)" d="M 225.397403 331.2 
L 341.345455 492.48 
" style="fill:none;stroke:#d3d3d3;stroke-linecap:square;stroke-width:1.5;"/>
   </g>
   <g id="line2d_88">
    <path clip-path="url(#p2af901c8bd)" d="M 225.397403 331.2 
L 375.163636 492.48 
" style="fill:none;stroke:#d3d3d3;stroke-linecap:square;stroke-width:1.5;"/>
   </g>
   <g id="line2d_89">
    <path clip-path="url(#p2af901c8bd)" d="M 225.397403 331.2 
L 408.981818 492.48 
" style="fill:none;stroke:#d3d3d3;stroke-linecap:square;stroke-width:1.5;"/>
   </g>
   <g id="line2d_90">
    <path clip-path="url(#p2af901c8bd)" d="M 225.397403 331.2 
L 442.8 492.48 
" style="fill:none;stroke:#d3d3d3;stroke-linecap:square;stroke-width:1.5;"/>
   </g>
   <g id="line2d_91">
    <path clip-path="url(#p2af901c8bd)" d="M 268.877922 331.2 
L 138.436364 492.48 
" style="fill:none;stroke:#d3d3d3;stroke-linecap:square;stroke-width:1.5;"/>
   </g>
   <g id="line2d_92">
    <path clip-path="url(#p2af901c8bd)" d="M 268.877922 331.2 
L 172.254545 492.48 
" style="fill:none;stroke:#d3d3d3;stroke-linecap:square;stroke-width:1.5;"/>
   </g>
   <g id="line2d_93">
    <path clip-path="url(#p2af901c8bd)" d="M 268.877922 331.2 
L 206.072727 492.48 
" style="fill:none;stroke:#d3d3d3;stroke-linecap:square;stroke-width:1.5;"/>
   </g>
   <g id="line2d_94">
    <path clip-path="url(#p2af901c8bd)" d="M 268.877922 331.2 
L 239.890909 492.48 
" style="fill:none;stroke:#d3d3d3;stroke-linecap:square;stroke-width:1.5;"/>
   </g>
   <g id="line2d_95">
    <path clip-path="url(#p2af901c8bd)" d="M 268.877922 331.2 
L 273.709091 492.48 
" style="fill:none;stroke:#d3d3d3;stroke-linecap:square;stroke-width:1.5;"/>
   </g>
   <g id="line2d_96">
    <path clip-path="url(#p2af901c8bd)" d="M 268.877922 331.2 
L 307.527273 492.48 
" style="fill:none;stroke:#d3d3d3;stroke-linecap:square;stroke-width:1.5;"/>
   </g>
   <g id="line2d_97">
    <path clip-path="url(#p2af901c8bd)" d="M 268.877922 331.2 
L 341.345455 492.48 
" style="fill:none;stroke:#d3d3d3;stroke-linecap:square;stroke-width:1.5;"/>
   </g>
   <g id="line2d_98">
    <path clip-path="url(#p2af901c8bd)" d="M 268.877922 331.2 
L 375.163636 492.48 
" style="fill:none;stroke:#d3d3d3;stroke-linecap:square;stroke-width:1.5;"/>
   </g>
   <g id="line2d_99">
    <path clip-path="url(#p2af901c8bd)" d="M 268.877922 331.2 
L 408.981818 492.48 
" style="fill:none;stroke:#d3d3d3;stroke-linecap:square;stroke-width:1.5;"/>
   </g>
   <g id="line2d_100">
    <path clip-path="url(#p2af901c8bd)" d="M 268.877922 331.2 
L 442.8 492.48 
" style="fill:none;stroke:#d3d3d3;stroke-linecap:square;stroke-width:1.5;"/>
   </g>
   <g id="line2d_101">
    <path clip-path="url(#p2af901c8bd)" d="M 312.358442 331.2 
L 138.436364 492.48 
" style="fill:none;stroke:#d3d3d3;stroke-linecap:square;stroke-width:1.5;"/>
   </g>
   <g id="line2d_102">
    <path clip-path="url(#p2af901c8bd)" d="M 312.358442 331.2 
L 172.254545 492.48 
" style="fill:none;stroke:#d3d3d3;stroke-linecap:square;stroke-width:1.5;"/>
   </g>
   <g id="line2d_103">
    <path clip-path="url(#p2af901c8bd)" d="M 312.358442 331.2 
L 206.072727 492.48 
" style="fill:none;stroke:#d3d3d3;stroke-linecap:square;stroke-width:1.5;"/>
   </g>
   <g id="line2d_104">
    <path clip-path="url(#p2af901c8bd)" d="M 312.358442 331.2 
L 239.890909 492.48 
" style="fill:none;stroke:#d3d3d3;stroke-linecap:square;stroke-width:1.5;"/>
   </g>
   <g id="line2d_105">
    <path clip-path="url(#p2af901c8bd)" d="M 312.358442 331.2 
L 273.709091 492.48 
" style="fill:none;stroke:#d3d3d3;stroke-linecap:square;stroke-width:1.5;"/>
   </g>
   <g id="line2d_106">
    <path clip-path="url(#p2af901c8bd)" d="M 312.358442 331.2 
L 307.527273 492.48 
" style="fill:none;stroke:#d3d3d3;stroke-linecap:square;stroke-width:1.5;"/>
   </g>
   <g id="line2d_107">
    <path clip-path="url(#p2af901c8bd)" d="M 312.358442 331.2 
L 341.345455 492.48 
" style="fill:none;stroke:#d3d3d3;stroke-linecap:square;stroke-width:1.5;"/>
   </g>
   <g id="line2d_108">
    <path clip-path="url(#p2af901c8bd)" d="M 312.358442 331.2 
L 375.163636 492.48 
" style="fill:none;stroke:#d3d3d3;stroke-linecap:square;stroke-width:1.5;"/>
   </g>
   <g id="line2d_109">
    <path clip-path="url(#p2af901c8bd)" d="M 312.358442 331.2 
L 408.981818 492.48 
" style="fill:none;stroke:#d3d3d3;stroke-linecap:square;stroke-width:1.5;"/>
   </g>
   <g id="line2d_110">
    <path clip-path="url(#p2af901c8bd)" d="M 312.358442 331.2 
L 442.8 492.48 
" style="fill:none;stroke:#d3d3d3;stroke-linecap:square;stroke-width:1.5;"/>
   </g>
   <g id="line2d_111">
    <path clip-path="url(#p2af901c8bd)" d="M 355.838961 331.2 
L 138.436364 492.48 
" style="fill:none;stroke:#d3d3d3;stroke-linecap:square;stroke-width:1.5;"/>
   </g>
   <g id="line2d_112">
    <path clip-path="url(#p2af901c8bd)" d="M 355.838961 331.2 
L 172.254545 492.48 
" style="fill:none;stroke:#d3d3d3;stroke-linecap:square;stroke-width:1.5;"/>
   </g>
   <g id="line2d_113">
    <path clip-path="url(#p2af901c8bd)" d="M 355.838961 331.2 
L 206.072727 492.48 
" style="fill:none;stroke:#d3d3d3;stroke-linecap:square;stroke-width:1.5;"/>
   </g>
   <g id="line2d_114">
    <path clip-path="url(#p2af901c8bd)" d="M 355.838961 331.2 
L 239.890909 492.48 
" style="fill:none;stroke:#d3d3d3;stroke-linecap:square;stroke-width:1.5;"/>
   </g>
   <g id="line2d_115">
    <path clip-path="url(#p2af901c8bd)" d="M 355.838961 331.2 
L 273.709091 492.48 
" style="fill:none;stroke:#d3d3d3;stroke-linecap:square;stroke-width:1.5;"/>
   </g>
   <g id="line2d_116">
    <path clip-path="url(#p2af901c8bd)" d="M 355.838961 331.2 
L 307.527273 492.48 
" style="fill:none;stroke:#d3d3d3;stroke-linecap:square;stroke-width:1.5;"/>
   </g>
   <g id="line2d_117">
    <path clip-path="url(#p2af901c8bd)" d="M 355.838961 331.2 
L 341.345455 492.48 
" style="fill:none;stroke:#d3d3d3;stroke-linecap:square;stroke-width:1.5;"/>
   </g>
   <g id="line2d_118">
    <path clip-path="url(#p2af901c8bd)" d="M 355.838961 331.2 
L 375.163636 492.48 
" style="fill:none;stroke:#d3d3d3;stroke-linecap:square;stroke-width:1.5;"/>
   </g>
   <g id="line2d_119">
    <path clip-path="url(#p2af901c8bd)" d="M 355.838961 331.2 
L 408.981818 492.48 
" style="fill:none;stroke:#d3d3d3;stroke-linecap:square;stroke-width:1.5;"/>
   </g>
   <g id="line2d_120">
    <path clip-path="url(#p2af901c8bd)" d="M 355.838961 331.2 
L 442.8 492.48 
" style="fill:none;stroke:#d3d3d3;stroke-linecap:square;stroke-width:1.5;"/>
   </g>
   <g id="line2d_121">
    <path clip-path="url(#p2af901c8bd)" d="M 399.319481 331.2 
L 138.436364 492.48 
" style="fill:none;stroke:#d3d3d3;stroke-linecap:square;stroke-width:1.5;"/>
   </g>
   <g id="line2d_122">
    <path clip-path="url(#p2af901c8bd)" d="M 399.319481 331.2 
L 172.254545 492.48 
" style="fill:none;stroke:#d3d3d3;stroke-linecap:square;stroke-width:1.5;"/>
   </g>
   <g id="line2d_123">
    <path clip-path="url(#p2af901c8bd)" d="M 399.319481 331.2 
L 206.072727 492.48 
" style="fill:none;stroke:#d3d3d3;stroke-linecap:square;stroke-width:1.5;"/>
   </g>
   <g id="line2d_124">
    <path clip-path="url(#p2af901c8bd)" d="M 399.319481 331.2 
L 239.890909 492.48 
" style="fill:none;stroke:#d3d3d3;stroke-linecap:square;stroke-width:1.5;"/>
   </g>
   <g id="line2d_125">
    <path clip-path="url(#p2af901c8bd)" d="M 399.319481 331.2 
L 273.709091 492.48 
" style="fill:none;stroke:#d3d3d3;stroke-linecap:square;stroke-width:1.5;"/>
   </g>
   <g id="line2d_126">
    <path clip-path="url(#p2af901c8bd)" d="M 399.319481 331.2 
L 307.527273 492.48 
" style="fill:none;stroke:#d3d3d3;stroke-linecap:square;stroke-width:1.5;"/>
   </g>
   <g id="line2d_127">
    <path clip-path="url(#p2af901c8bd)" d="M 399.319481 331.2 
L 341.345455 492.48 
" style="fill:none;stroke:#d3d3d3;stroke-linecap:square;stroke-width:1.5;"/>
   </g>
   <g id="line2d_128">
    <path clip-path="url(#p2af901c8bd)" d="M 399.319481 331.2 
L 375.163636 492.48 
" style="fill:none;stroke:#d3d3d3;stroke-linecap:square;stroke-width:1.5;"/>
   </g>
   <g id="line2d_129">
    <path clip-path="url(#p2af901c8bd)" d="M 399.319481 331.2 
L 408.981818 492.48 
" style="fill:none;stroke:#d3d3d3;stroke-linecap:square;stroke-width:1.5;"/>
   </g>
   <g id="line2d_130">
    <path clip-path="url(#p2af901c8bd)" d="M 399.319481 331.2 
L 442.8 492.48 
" style="fill:none;stroke:#d3d3d3;stroke-linecap:square;stroke-width:1.5;"/>
   </g>
   <g id="line2d_131">
    <path clip-path="url(#p2af901c8bd)" d="M 442.8 331.2 
L 138.436364 492.48 
" style="fill:none;stroke:#d3d3d3;stroke-linecap:square;stroke-width:1.5;"/>
   </g>
   <g id="line2d_132">
    <path clip-path="url(#p2af901c8bd)" d="M 442.8 331.2 
L 172.254545 492.48 
" style="fill:none;stroke:#d3d3d3;stroke-linecap:square;stroke-width:1.5;"/>
   </g>
   <g id="line2d_133">
    <path clip-path="url(#p2af901c8bd)" d="M 442.8 331.2 
L 206.072727 492.48 
" style="fill:none;stroke:#d3d3d3;stroke-linecap:square;stroke-width:1.5;"/>
   </g>
   <g id="line2d_134">
    <path clip-path="url(#p2af901c8bd)" d="M 442.8 331.2 
L 239.890909 492.48 
" style="fill:none;stroke:#d3d3d3;stroke-linecap:square;stroke-width:1.5;"/>
   </g>
   <g id="line2d_135">
    <path clip-path="url(#p2af901c8bd)" d="M 442.8 331.2 
L 273.709091 492.48 
" style="fill:none;stroke:#d3d3d3;stroke-linecap:square;stroke-width:1.5;"/>
   </g>
   <g id="line2d_136">
    <path clip-path="url(#p2af901c8bd)" d="M 442.8 331.2 
L 307.527273 492.48 
" style="fill:none;stroke:#d3d3d3;stroke-linecap:square;stroke-width:1.5;"/>
   </g>
   <g id="line2d_137">
    <path clip-path="url(#p2af901c8bd)" d="M 442.8 331.2 
L 341.345455 492.48 
" style="fill:none;stroke:#d3d3d3;stroke-linecap:square;stroke-width:1.5;"/>
   </g>
   <g id="line2d_138">
    <path clip-path="url(#p2af901c8bd)" d="M 442.8 331.2 
L 375.163636 492.48 
" style="fill:none;stroke:#d3d3d3;stroke-linecap:square;stroke-width:1.5;"/>
   </g>
   <g id="line2d_139">
    <path clip-path="url(#p2af901c8bd)" d="M 442.8 331.2 
L 408.981818 492.48 
" style="fill:none;stroke:#d3d3d3;stroke-linecap:square;stroke-width:1.5;"/>
   </g>
   <g id="line2d_140">
    <path clip-path="url(#p2af901c8bd)" d="M 442.8 331.2 
L 442.8 492.48 
" style="fill:none;stroke:#d3d3d3;stroke-linecap:square;stroke-width:1.5;"/>
   </g>
   <g id="PathCollection_1">
    <defs>
     <path d="M 0 10 
C 2.652031 10 5.195799 8.946337 7.071068 7.071068 
C 8.946337 5.195799 10 2.652031 10 0 
C 10 -2.652031 8.946337 -5.195799 7.071068 -7.071068 
C 5.195799 -8.946337 2.652031 -10 0 -10 
C -2.652031 -10 -5.195799 -8.946337 -7.071068 -7.071068 
C -8.946337 -5.195799 -10 -2.652031 -10 0 
C -10 2.652031 -8.946337 5.195799 -7.071068 7.071068 
C -5.195799 8.946337 -2.652031 10 0 10 
z
" id="m7b7be20d1c" style="stroke:#000000;stroke-width:1.5;"/>
    </defs>
    <g clip-path="url(#p2af901c8bd)">
     <use style="fill:#0000ff;stroke:#000000;stroke-width:1.5;" x="138.436364" xlink:href="#m7b7be20d1c" y="89.28"/>
     <use style="fill:#0000ff;stroke:#000000;stroke-width:1.5;" x="442.8" xlink:href="#m7b7be20d1c" y="89.28"/>
    </g>
   </g>
   <g id="PathCollection_2">
    <defs>
     <path d="M 0 10 
C 2.652031 10 5.195799 8.946337 7.071068 7.071068 
C 8.946337 5.195799 10 2.652031 10 0 
C 10 -2.652031 8.946337 -5.195799 7.071068 -7.071068 
C 5.195799 -8.946337 2.652031 -10 0 -10 
C -2.652031 -10 -5.195799 -8.946337 -7.071068 -7.071068 
C -8.946337 -5.195799 -10 -2.652031 -10 0 
C -10 2.652031 -8.946337 5.195799 -7.071068 7.071068 
C -5.195799 8.946337 -2.652031 10 0 10 
z
" id="me85b65c67c" style="stroke:#000000;stroke-width:1.5;"/>
    </defs>
    <g clip-path="url(#p2af901c8bd)">
     <use style="fill:#ffa500;stroke:#000000;stroke-width:1.5;" x="138.436364" xlink:href="#me85b65c67c" y="210.24"/>
     <use style="fill:#ffa500;stroke:#000000;stroke-width:1.5;" x="199.309091" xlink:href="#me85b65c67c" y="210.24"/>
     <use style="fill:#ffa500;stroke:#000000;stroke-width:1.5;" x="260.181818" xlink:href="#me85b65c67c" y="210.24"/>
     <use style="fill:#ffa500;stroke:#000000;stroke-width:1.5;" x="321.054545" xlink:href="#me85b65c67c" y="210.24"/>
     <use style="fill:#ffa500;stroke:#000000;stroke-width:1.5;" x="381.927273" xlink:href="#me85b65c67c" y="210.24"/>
     <use style="fill:#ffa500;stroke:#000000;stroke-width:1.5;" x="442.8" xlink:href="#me85b65c67c" y="210.24"/>
    </g>
   </g>
   <g id="PathCollection_3">
    <g clip-path="url(#p2af901c8bd)">
     <use style="fill:#ffa500;stroke:#000000;stroke-width:1.5;" x="138.436364" xlink:href="#me85b65c67c" y="331.2"/>
     <use style="fill:#ffa500;stroke:#000000;stroke-width:1.5;" x="181.916883" xlink:href="#me85b65c67c" y="331.2"/>
     <use style="fill:#ffa500;stroke:#000000;stroke-width:1.5;" x="225.397403" xlink:href="#me85b65c67c" y="331.2"/>
     <use style="fill:#ffa500;stroke:#000000;stroke-width:1.5;" x="268.877922" xlink:href="#me85b65c67c" y="331.2"/>
     <use style="fill:#ffa500;stroke:#000000;stroke-width:1.5;" x="312.358442" xlink:href="#me85b65c67c" y="331.2"/>
     <use style="fill:#ffa500;stroke:#000000;stroke-width:1.5;" x="355.838961" xlink:href="#me85b65c67c" y="331.2"/>
     <use style="fill:#ffa500;stroke:#000000;stroke-width:1.5;" x="399.319481" xlink:href="#me85b65c67c" y="331.2"/>
     <use style="fill:#ffa500;stroke:#000000;stroke-width:1.5;" x="442.8" xlink:href="#me85b65c67c" y="331.2"/>
    </g>
   </g>
   <g id="PathCollection_4">
    <g clip-path="url(#p2af901c8bd)">
     <use style="fill:#0000ff;stroke:#000000;stroke-width:1.5;" x="138.436364" xlink:href="#m7b7be20d1c" y="492.48"/>
     <use style="fill:#0000ff;stroke:#000000;stroke-width:1.5;" x="172.254545" xlink:href="#m7b7be20d1c" y="492.48"/>
     <use style="fill:#0000ff;stroke:#000000;stroke-width:1.5;" x="206.072727" xlink:href="#m7b7be20d1c" y="492.48"/>
     <use style="fill:#0000ff;stroke:#000000;stroke-width:1.5;" x="239.890909" xlink:href="#m7b7be20d1c" y="492.48"/>
     <use style="fill:#0000ff;stroke:#000000;stroke-width:1.5;" x="273.709091" xlink:href="#m7b7be20d1c" y="492.48"/>
     <use style="fill:#0000ff;stroke:#000000;stroke-width:1.5;" x="307.527273" xlink:href="#m7b7be20d1c" y="492.48"/>
     <use style="fill:#0000ff;stroke:#000000;stroke-width:1.5;" x="341.345455" xlink:href="#m7b7be20d1c" y="492.48"/>
     <use style="fill:#0000ff;stroke:#000000;stroke-width:1.5;" x="375.163636" xlink:href="#m7b7be20d1c" y="492.48"/>
     <use style="fill:#0000ff;stroke:#000000;stroke-width:1.5;" x="408.981818" xlink:href="#m7b7be20d1c" y="492.48"/>
     <use style="fill:#0000ff;stroke:#000000;stroke-width:1.5;" x="442.8" xlink:href="#m7b7be20d1c" y="492.48"/>
    </g>
   </g>
   <g id="patch_2">
    <path clip-path="url(#p2af901c8bd)" d="M 442.8 492.48 
L 747.163636 411.84 
L 443.95095 90.49976 
" style="fill:none;stroke:#000000;stroke-linecap:round;stroke-width:1.5;"/>
    <path clip-path="url(#p2af901c8bd)" d="M 444.080003 90.927948 
L 443.95095 90.49976 
L 444.370933 90.653431 
L 444.080003 90.927948 
z
" style="stroke:#000000;stroke-linecap:round;stroke-width:1.5;"/>
   </g>
   <g id="text_1">
    <!-- UBP Model Architecture -->
    <g style="fill:#333333;" transform="translate(348.55875 63.12)scale(0.16 -0.16)">
     <defs>
      <path d="M 556 4666 
L 1191 4666 
L 1191 1831 
Q 1191 1081 1462 751 
Q 1734 422 2344 422 
Q 2950 422 3222 751 
Q 3494 1081 3494 1831 
L 3494 4666 
L 4128 4666 
L 4128 1753 
Q 4128 841 3676 375 
Q 3225 -91 2344 -91 
Q 1459 -91 1007 375 
Q 556 841 556 1753 
L 556 4666 
z
" id="DejaVuSans-55" transform="scale(0.015625)"/>
      <path d="M 1259 2228 
L 1259 519 
L 2272 519 
Q 2781 519 3026 730 
Q 3272 941 3272 1375 
Q 3272 1813 3026 2020 
Q 2781 2228 2272 2228 
L 1259 2228 
z
M 1259 4147 
L 1259 2741 
L 2194 2741 
Q 2656 2741 2882 2914 
Q 3109 3088 3109 3444 
Q 3109 3797 2882 3972 
Q 2656 4147 2194 4147 
L 1259 4147 
z
M 628 4666 
L 2241 4666 
Q 2963 4666 3353 4366 
Q 3744 4066 3744 3513 
Q 3744 3084 3544 2831 
Q 3344 2578 2956 2516 
Q 3422 2416 3680 2098 
Q 3938 1781 3938 1306 
Q 3938 681 3513 340 
Q 3088 0 2303 0 
L 628 0 
L 628 4666 
z
" id="DejaVuSans-42" transform="scale(0.015625)"/>
      <path d="M 1259 4147 
L 1259 2394 
L 2053 2394 
Q 2494 2394 2734 2622 
Q 2975 2850 2975 3272 
Q 2975 3691 2734 3919 
Q 2494 4147 2053 4147 
L 1259 4147 
z
M 628 4666 
L 2053 4666 
Q 2838 4666 3239 4311 
Q 3641 3956 3641 3272 
Q 3641 2581 3239 2228 
Q 2838 1875 2053 1875 
L 1259 1875 
L 1259 0 
L 628 0 
L 628 4666 
z
" id="DejaVuSans-50" transform="scale(0.015625)"/>
      <path id="DejaVuSans-20" transform="scale(0.015625)"/>
      <path d="M 628 4666 
L 1569 4666 
L 2759 1491 
L 3956 4666 
L 4897 4666 
L 4897 0 
L 4281 0 
L 4281 4097 
L 3078 897 
L 2444 897 
L 1241 4097 
L 1241 0 
L 628 0 
L 628 4666 
z
" id="DejaVuSans-4d" transform="scale(0.015625)"/>
      <path d="M 1959 3097 
Q 1497 3097 1228 2736 
Q 959 2375 959 1747 
Q 959 1119 1226 758 
Q 1494 397 1959 397 
Q 2419 397 2687 759 
Q 2956 1122 2956 1747 
Q 2956 2369 2687 2733 
Q 2419 3097 1959 3097 
z
M 1959 3584 
Q 2709 3584 3137 3096 
Q 3566 2609 3566 1747 
Q 3566 888 3137 398 
Q 2709 -91 1959 -91 
Q 1206 -91 779 398 
Q 353 888 353 1747 
Q 353 2609 779 3096 
Q 1206 3584 1959 3584 
z
" id="DejaVuSans-6f" transform="scale(0.015625)"/>
      <path d="M 2906 2969 
L 2906 4863 
L 3481 4863 
L 3481 0 
L 2906 0 
L 2906 525 
Q 2725 213 2448 61 
Q 2172 -91 1784 -91 
Q 1150 -91 751 415 
Q 353 922 353 1747 
Q 353 2572 751 3078 
Q 1150 3584 1784 3584 
Q 2172 3584 2448 3432 
Q 2725 3281 2906 2969 
z
M 947 1747 
Q 947 1113 1208 752 
Q 1469 391 1925 391 
Q 2381 391 2643 752 
Q 2906 1113 2906 1747 
Q 2906 2381 2643 2742 
Q 2381 3103 1925 3103 
Q 1469 3103 1208 2742 
Q 947 2381 947 1747 
z
" id="DejaVuSans-64" transform="scale(0.015625)"/>
      <path d="M 3597 1894 
L 3597 1613 
L 953 1613 
Q 991 1019 1311 708 
Q 1631 397 2203 397 
Q 2534 397 2845 478 
Q 3156 559 3463 722 
L 3463 178 
Q 3153 47 2828 -22 
Q 2503 -91 2169 -91 
Q 1331 -91 842 396 
Q 353 884 353 1716 
Q 353 2575 817 3079 
Q 1281 3584 2069 3584 
Q 2775 3584 3186 3129 
Q 3597 2675 3597 1894 
z
M 3022 2063 
Q 3016 2534 2758 2815 
Q 2500 3097 2075 3097 
Q 1594 3097 1305 2825 
Q 1016 2553 972 2059 
L 3022 2063 
z
" id="DejaVuSans-65" transform="scale(0.015625)"/>
      <path d="M 603 4863 
L 1178 4863 
L 1178 0 
L 603 0 
L 603 4863 
z
" id="DejaVuSans-6c" transform="scale(0.015625)"/>
      <path d="M 2188 4044 
L 1331 1722 
L 3047 1722 
L 2188 4044 
z
M 1831 4666 
L 2547 4666 
L 4325 0 
L 3669 0 
L 3244 1197 
L 1141 1197 
L 716 0 
L 50 0 
L 1831 4666 
z
" id="DejaVuSans-41" transform="scale(0.015625)"/>
      <path d="M 2631 2963 
Q 2534 3019 2420 3045 
Q 2306 3072 2169 3072 
Q 1681 3072 1420 2755 
Q 1159 2438 1159 1844 
L 1159 0 
L 581 0 
L 581 3500 
L 1159 3500 
L 1159 2956 
Q 1341 3275 1631 3429 
Q 1922 3584 2338 3584 
Q 2397 3584 2469 3576 
Q 2541 3569 2628 3553 
L 2631 2963 
z
" id="DejaVuSans-72" transform="scale(0.015625)"/>
      <path d="M 3122 3366 
L 3122 2828 
Q 2878 2963 2633 3030 
Q 2388 3097 2138 3097 
Q 1578 3097 1268 2742 
Q 959 2388 959 1747 
Q 959 1106 1268 751 
Q 1578 397 2138 397 
Q 2388 397 2633 464 
Q 2878 531 3122 666 
L 3122 134 
Q 2881 22 2623 -34 
Q 2366 -91 2075 -91 
Q 1284 -91 818 406 
Q 353 903 353 1747 
Q 353 2603 823 3093 
Q 1294 3584 2113 3584 
Q 2378 3584 2631 3529 
Q 2884 3475 3122 3366 
z
" id="DejaVuSans-63" transform="scale(0.015625)"/>
      <path d="M 3513 2113 
L 3513 0 
L 2938 0 
L 2938 2094 
Q 2938 2591 2744 2837 
Q 2550 3084 2163 3084 
Q 1697 3084 1428 2787 
Q 1159 2491 1159 1978 
L 1159 0 
L 581 0 
L 581 4863 
L 1159 4863 
L 1159 2956 
Q 1366 3272 1645 3428 
Q 1925 3584 2291 3584 
Q 2894 3584 3203 3211 
Q 3513 2838 3513 2113 
z
" id="DejaVuSans-68" transform="scale(0.015625)"/>
      <path d="M 603 3500 
L 1178 3500 
L 1178 0 
L 603 0 
L 603 3500 
z
M 603 4863 
L 1178 4863 
L 1178 4134 
L 603 4134 
L 603 4863 
z
" id="DejaVuSans-69" transform="scale(0.015625)"/>
      <path d="M 1172 4494 
L 1172 3500 
L 2356 3500 
L 2356 3053 
L 1172 3053 
L 1172 1153 
Q 1172 725 1289 603 
Q 1406 481 1766 481 
L 2356 481 
L 2356 0 
L 1766 0 
Q 1100 0 847 248 
Q 594 497 594 1153 
L 594 3053 
L 172 3053 
L 172 3500 
L 594 3500 
L 594 4494 
L 1172 4494 
z
" id="DejaVuSans-74" transform="scale(0.015625)"/>
      <path d="M 544 1381 
L 544 3500 
L 1119 3500 
L 1119 1403 
Q 1119 906 1312 657 
Q 1506 409 1894 409 
Q 2359 409 2629 706 
Q 2900 1003 2900 1516 
L 2900 3500 
L 3475 3500 
L 3475 0 
L 2900 0 
L 2900 538 
Q 2691 219 2414 64 
Q 2138 -91 1772 -91 
Q 1169 -91 856 284 
Q 544 659 544 1381 
z
M 1991 3584 
L 1991 3584 
z
" id="DejaVuSans-75" transform="scale(0.015625)"/>
     </defs>
     <use xlink:href="#DejaVuSans-55"/>
     <use x="73.193359" xlink:href="#DejaVuSans-42"/>
     <use x="141.796875" xlink:href="#DejaVuSans-50"/>
     <use x="202.099609" xlink:href="#DejaVuSans-20"/>
     <use x="233.886719" xlink:href="#DejaVuSans-4d"/>
     <use x="320.166016" xlink:href="#DejaVuSans-6f"/>
     <use x="381.347656" xlink:href="#DejaVuSans-64"/>
     <use x="444.824219" xlink:href="#DejaVuSans-65"/>
     <use x="506.347656" xlink:href="#DejaVuSans-6c"/>
     <use x="534.130859" xlink:href="#DejaVuSans-20"/>
     <use x="565.917969" xlink:href="#DejaVuSans-41"/>
     <use x="634.326172" xlink:href="#DejaVuSans-72"/>
     <use x="673.189453" xlink:href="#DejaVuSans-63"/>
     <use x="728.169922" xlink:href="#DejaVuSans-68"/>
     <use x="791.548828" xlink:href="#DejaVuSans-69"/>
     <use x="819.332031" xlink:href="#DejaVuSans-74"/>
     <use x="858.541016" xlink:href="#DejaVuSans-65"/>
     <use x="920.064453" xlink:href="#DejaVuSans-63"/>
     <use x="975.044922" xlink:href="#DejaVuSans-74"/>
     <use x="1014.253906" xlink:href="#DejaVuSans-75"/>
     <use x="1077.632812" xlink:href="#DejaVuSans-72"/>
     <use x="1116.496094" xlink:href="#DejaVuSans-65"/>
    </g>
   </g>
  </g>
 </g>
 <defs>
  <clipPath id="p2af901c8bd">
   <rect height="443.52" width="669.6" x="108" y="69.12"/>
  </clipPath>
 </defs>
</svg>
